<svg xmlns="http://www.w3.org/2000/svg" viewBox="0 0 640 420" role="img" aria-label="Mocha coffee">
  <defs>
    <linearGradient id="bg" x1="0" y1="0" x2="1" y2="1">
      <stop offset="0%" stop-color="#7c4a2a" />
      <stop offset="100%" stop-color="#20120d" />
    </linearGradient>
    <linearGradient id="cup" x1="0" y1="0" x2="0" y2="1">
      <stop offset="0%" stop-color="#fff8f1" />
      <stop offset="100%" stop-color="#dccfc4" />
    </linearGradient>
  </defs>
  <rect width="640" height="420" rx="40" fill="url(#bg)" />
  <ellipse cx="320" cy="330" rx="176" ry="24" fill="rgba(0,0,0,0.28)" />
  <path d="M206 150h228c8 0 14 6 14 14v86c0 50-40 90-90 90h-76c-50 0-90-40-90-90v-86c0-8 6-14 14-14z" fill="url(#cup)" />
  <path d="M424 176h30c22 0 40 18 40 40s-18 40-40 40h-28" fill="none" stroke="#e7d8ce" stroke-width="18" stroke-linecap="round" />
  <path d="M248 184c28-10 62-10 96 0" fill="none" stroke="#7b4a2c" stroke-width="12" stroke-linecap="round" opacity=".9" />
  <path d="M238 216c34-12 72-12 118 0" fill="none" stroke="#7b4a2c" stroke-width="12" stroke-linecap="round" opacity=".9" />
  <circle cx="257" cy="188" r="10" fill="#f4d8b3" opacity=".8" />
  <circle cx="308" cy="184" r="10" fill="#f4d8b3" opacity=".8" />
  <circle cx="359" cy="188" r="10" fill="#f4d8b3" opacity=".8" />
  <path d="M270 146c0-18 16-34 16-56" fill="none" stroke="#f4d8b3" stroke-width="10" stroke-linecap="round" opacity=".8" />
  <path d="M320 136c0-20 16-36 16-58" fill="none" stroke="#f4d8b3" stroke-width="10" stroke-linecap="round" opacity=".8" />
  <path d="M370 146c0-18 16-34 16-56" fill="none" stroke="#f4d8b3" stroke-width="10" stroke-linecap="round" opacity=".8" />
  <text x="320" y="372" text-anchor="middle" fill="#f8eadc" font-family="Arial, sans-serif" font-size="30" font-weight="700">Mocha</text>
</svg>
